<?xml version="1.0" encoding="utf-8"?>
<!-- Generator: Adobe Illustrator 25.0.1, SVG Export Plug-In . SVG Version: 6.00 Build 0)  -->
<svg version="1.1" id="Layer_1" xmlns="http://www.w3.org/2000/svg" xmlns:xlink="http://www.w3.org/1999/xlink" x="0px" y="0px"
	 viewBox="0 0 16 16" style="enable-background:new 0 0 16 16;" xml:space="preserve">
<style type="text/css">
	.st0{fill-rule:evenodd;clip-rule:evenodd;}
</style>
<path class="st0" d="M0.2,15.8c0.2,0.2,0.5,0.2,0.7,0L5,11.7v2.8C5,14.8,5.2,15,5.5,15C5.8,15,6,14.8,6,14.5v-4
	C6,10.2,5.8,10,5.5,10h-4C1.2,10,1,10.2,1,10.5S1.2,11,1.5,11h2.8l-4.1,4.1C0,15.3,0,15.6,0.2,15.8z M15.8,15.8
	c-0.2,0.2-0.5,0.2-0.7,0L11,11.7v2.8c0,0.3-0.2,0.5-0.5,0.5S10,14.8,10,14.5v-4c0-0.3,0.2-0.5,0.5-0.5h4c0.3,0,0.5,0.2,0.5,0.5
	S14.8,11,14.5,11h-2.8l4.1,4.1C16,15.3,16,15.6,15.8,15.8z M15.8,0.2c-0.2-0.2-0.5-0.2-0.7,0L11,4.3V1.5C11,1.2,10.8,1,10.5,1
	S10,1.2,10,1.5v4C10,5.8,10.2,6,10.5,6h4C14.8,6,15,5.8,15,5.5C15,5.2,14.8,5,14.5,5h-2.8l4.1-4.1C16,0.7,16,0.4,15.8,0.2z M0.2,0.2
	C0.4,0,0.7,0,0.9,0.2L5,4.3V1.5C5,1.2,5.2,1,5.5,1C5.8,1,6,1.2,6,1.5v4C6,5.8,5.8,6,5.5,6h-4C1.2,6,1,5.8,1,5.5C1,5.2,1.2,5,1.5,5
	h2.8L0.2,0.9C0,0.7,0,0.4,0.2,0.2z"/>
</svg>
