<svg xmlns="http://www.w3.org/2000/svg" viewBox="0 0 26.83 26.83"><defs><style>.cls-1{fill:#fff;stroke:#000;stroke-miterlimit:10;}</style></defs><g id="Layer_2" data-name="Layer 2"><g id="Layer_1-2" data-name="Layer 1"><g id="camp44_white"><circle class="cls-1" cx="13.41" cy="13.41" r="12.91"/><path d="M10.11,15.53H5.51v-.95l4.34-5.7h1.58v5.54h1.35v1.11H11.43V18H10.11Zm0-1.11V12c0-.51,0-1.18.07-1.71h-.07c-.29.47-.63.93-.94,1.38L7,14.42Z"/><path d="M18.64,15.53H14.05v-.95l4.33-5.7H20v5.54h1.35v1.11H20V18H18.64Zm0-1.11V12c0-.51,0-1.18.07-1.71h-.07c-.29.47-.63.93-.94,1.38l-2.18,2.8Z"/></g></g></g></svg>