<svg xmlns="http://www.w3.org/2000/svg" viewBox="0 0 25.83 25.83"><defs><style>.cls-1{opacity:0.12;}</style></defs><g id="Layer_2" data-name="Layer 2"><g id="Layer_1-2" data-name="Layer 1"><g id="camp39_deselect"><circle class="cls-1" cx="12.91" cy="12.91" r="12.91"/><path d="M5.27,16.33l.7-.91a3.58,3.58,0,0,0,2.5,1c1.17,0,2-.58,2-1.52s-.84-1.66-3.16-1.66V12.22c2.06,0,2.85-.66,2.85-1.56s-.7-1.32-1.74-1.32a3.25,3.25,0,0,0-2.13.89L5.6,9.35A4.44,4.44,0,0,1,8.53,8.21c1.79,0,3.1.86,3.1,2.35,0,1-.77,1.73-1.89,2.12v.06A2.48,2.48,0,0,1,11.94,15c0,1.64-1.54,2.6-3.37,2.6A4.41,4.41,0,0,1,5.27,16.33Z"/><path d="M14.11,16.62l.77-.87a2.54,2.54,0,0,0,1.75.71c1.35,0,2.55-.92,2.6-3.64A3.63,3.63,0,0,1,16.76,14a2.58,2.58,0,0,1-2.82-2.8A3,3,0,0,1,17,8.21c1.95,0,3.53,1.41,3.53,4.4,0,3.57-1.85,5-3.83,5A3.8,3.8,0,0,1,14.11,16.62Zm5.08-4.84c-.2-1.68-1-2.47-2.15-2.47a1.73,1.73,0,0,0-1.77,1.85A1.59,1.59,0,0,0,17,12.92,2.86,2.86,0,0,0,19.19,11.78Z"/></g></g></g></svg>