<svg xmlns="http://www.w3.org/2000/svg" viewBox="0 0 25.83 25.83"><defs><style>.cls-1{fill:#fff;}</style></defs><g id="Layer_2" data-name="Layer 2"><g id="Layer_1-2" data-name="Layer 1"><g id="camp66_select"><circle cx="12.91" cy="12.91" r="12.91"/><path class="cls-1" d="M5.35,13.22c0-3.57,1.83-5,3.81-5a3.8,3.8,0,0,1,2.63,1l-.77.87a2.59,2.59,0,0,0-1.76-.71c-1.35,0-2.55.92-2.6,3.64a3.59,3.59,0,0,1,2.47-1.14A2.58,2.58,0,0,1,12,14.67a3,3,0,0,1-3.09,2.94C6.91,17.61,5.35,16.21,5.35,13.22Zm5.27,1.45a1.59,1.59,0,0,0-1.77-1.76A2.84,2.84,0,0,0,6.7,14c.2,1.68,1,2.48,2.15,2.48A1.73,1.73,0,0,0,10.62,14.67Z"/><path class="cls-1" d="M13.88,13.22c0-3.57,1.83-5,3.81-5a3.8,3.8,0,0,1,2.63,1l-.77.87a2.59,2.59,0,0,0-1.76-.71c-1.35,0-2.55.92-2.6,3.64a3.59,3.59,0,0,1,2.47-1.14,2.58,2.58,0,0,1,2.82,2.8,3,3,0,0,1-3.09,2.94C15.44,17.61,13.88,16.21,13.88,13.22Zm5.28,1.45a1.59,1.59,0,0,0-1.78-1.76A2.84,2.84,0,0,0,15.23,14c.2,1.68,1,2.48,2.15,2.48A1.74,1.74,0,0,0,19.16,14.67Z"/></g></g></g></svg>