<svg xmlns="http://www.w3.org/2000/svg" viewBox="0 0 26.83 26.83"><defs><style>.cls-1{fill:#fff;stroke:#000;stroke-miterlimit:10;}</style></defs><g id="Layer_2" data-name="Layer 2"><g id="Layer_1-2" data-name="Layer 1"><g id="camp27_white"><circle class="cls-1" cx="13.41" cy="13.41" r="12.91"/><path d="M5.88,17.2c3-2.57,4.65-4.15,4.65-5.61,0-1-.61-1.67-1.85-1.67A3.07,3.07,0,0,0,6.6,11l-.79-.78A4,4,0,0,1,8.86,8.8a2.7,2.7,0,0,1,3,2.72c0,1.66-1.68,3.34-4,5.4.54,0,1.15-.09,1.66-.09h2.77V18H5.88Z"/><path d="M19.44,10.16H14.39V9H21v.87C18.65,12.52,18.12,14.47,18,18H16.51A12,12,0,0,1,19.44,10.16Z"/></g></g></g></svg>