<svg xmlns="http://www.w3.org/2000/svg" viewBox="0 0 25.83 25.83"><defs><style>.cls-1{fill:#fff;}</style></defs><g id="Layer_2" data-name="Layer 2"><g id="Layer_1-2" data-name="Layer 1"><g id="camp34_select"><circle cx="12.91" cy="12.91" r="12.91"/><path class="cls-1" d="M9.61,15H5v-.95l4.34-5.7h1.58v5.54h1.35V15H10.93v2.42H9.61Zm0-1.11V11.45c0-.51,0-1.18.07-1.71H9.61c-.29.47-.63.93-.94,1.38l-2.18,2.8Z"/><path class="cls-1" d="M18.14,15H13.55v-.95l4.33-5.7h1.58v5.54h1.35V15H19.46v2.42H18.14Zm0-1.11V11.45c0-.51,0-1.18.07-1.71h-.07c-.29.47-.63.93-.94,1.38L15,13.92Z"/></g></g></g></svg>