<svg xmlns="http://www.w3.org/2000/svg" viewBox="0 0 26.83 26.83"><defs><style>.cls-1{fill:#fff;stroke:#000;stroke-miterlimit:10;}</style></defs><g id="Layer_2" data-name="Layer 2"><g id="Layer_1-2" data-name="Layer 1"><g id="camp39_white"><circle class="cls-1" cx="13.41" cy="13.41" r="12.91"/><path d="M5.77,16.83l.7-.91A3.58,3.58,0,0,0,9,17c1.17,0,2-.58,2-1.52s-.84-1.66-3.16-1.66V12.72c2.06,0,2.85-.66,2.85-1.56S10,9.84,9,9.84a3.25,3.25,0,0,0-2.13.89L6.1,9.85A4.44,4.44,0,0,1,9,8.71c1.79,0,3.1.86,3.1,2.35,0,1-.77,1.73-1.89,2.12v.06a2.48,2.48,0,0,1,2.2,2.27c0,1.64-1.54,2.6-3.37,2.6A4.41,4.41,0,0,1,5.77,16.83Z"/><path d="M14.61,17.12l.77-.87a2.54,2.54,0,0,0,1.75.71c1.35,0,2.55-.92,2.6-3.64a3.63,3.63,0,0,1-2.47,1.14,2.58,2.58,0,0,1-2.82-2.8,3,3,0,0,1,3.09-2.95c1.95,0,3.53,1.41,3.53,4.4,0,3.57-1.85,5-3.83,5A3.8,3.8,0,0,1,14.61,17.12Zm5.08-4.84c-.2-1.68-1-2.47-2.15-2.47a1.73,1.73,0,0,0-1.77,1.85,1.59,1.59,0,0,0,1.77,1.76A2.86,2.86,0,0,0,19.69,12.28Z"/></g></g></g></svg>