<svg xmlns="http://www.w3.org/2000/svg" viewBox="0 0 25.83 25.83"><defs><style>.cls-1{opacity:0.12;}</style></defs><g id="Layer_2" data-name="Layer 2"><g id="Layer_1-2" data-name="Layer 1"><g id="camp27_deselect"><circle class="cls-1" cx="12.91" cy="12.91" r="12.91"/><path d="M5.38,16.7c3-2.57,4.65-4.15,4.65-5.61,0-1-.61-1.67-1.85-1.67A3.07,3.07,0,0,0,6.1,10.47l-.79-.78A4,4,0,0,1,8.36,8.3a2.7,2.7,0,0,1,3,2.72c0,1.66-1.68,3.34-4,5.4.54,0,1.15-.09,1.66-.09h2.77v1.2H5.38Z"/><path d="M18.94,9.66H13.89V8.47h6.63v.87C18.15,12,17.62,14,17.46,17.53H16A12,12,0,0,1,18.94,9.66Z"/></g></g></g></svg>