<svg xmlns="http://www.w3.org/2000/svg" viewBox="0 0 26.83 26.83"><defs><style>.cls-1{fill:#fff;stroke:#000;stroke-miterlimit:10;}</style></defs><g id="Layer_2" data-name="Layer 2"><g id="Layer_1-2" data-name="Layer 1"><g id="camp66_white"><circle class="cls-1" cx="13.41" cy="13.41" r="12.91"/><path d="M5.85,13.72c0-3.57,1.83-5,3.81-5a3.8,3.8,0,0,1,2.63,1l-.77.87a2.59,2.59,0,0,0-1.76-.71c-1.35,0-2.55.92-2.6,3.64a3.59,3.59,0,0,1,2.47-1.14,2.58,2.58,0,0,1,2.82,2.8,3,3,0,0,1-3.09,2.94C7.41,18.11,5.85,16.71,5.85,13.72Zm5.27,1.45a1.59,1.59,0,0,0-1.77-1.76A2.84,2.84,0,0,0,7.2,14.54c.2,1.68,1,2.48,2.15,2.48A1.73,1.73,0,0,0,11.12,15.17Z"/><path d="M14.38,13.72c0-3.57,1.83-5,3.81-5a3.8,3.8,0,0,1,2.63,1l-.77.87a2.59,2.59,0,0,0-1.76-.71c-1.35,0-2.55.92-2.6,3.64a3.59,3.59,0,0,1,2.47-1.14A2.58,2.58,0,0,1,21,15.17a3,3,0,0,1-3.09,2.94C15.94,18.11,14.38,16.71,14.38,13.72Zm5.28,1.45a1.59,1.59,0,0,0-1.78-1.76,2.84,2.84,0,0,0-2.15,1.13c.2,1.68,1,2.48,2.15,2.48A1.74,1.74,0,0,0,19.66,15.17Z"/></g></g></g></svg>