<svg xmlns="http://www.w3.org/2000/svg" viewBox="0 0 26.83 26.83"><defs><style>.cls-1{fill:#fff;stroke:#000;stroke-miterlimit:10;}</style></defs><g id="Layer_2" data-name="Layer 2"><g id="Layer_1-2" data-name="Layer 1"><g id="camp33_white"><circle class="cls-1" cx="13.41" cy="13.41" r="12.91"/><path d="M5.81,16.83l.7-.91A3.6,3.6,0,0,0,9,17c1.17,0,2.05-.58,2.05-1.52s-.84-1.66-3.16-1.66V12.72c2.07,0,2.85-.66,2.85-1.56S10.05,9.84,9,9.84a3.27,3.27,0,0,0-2.13.89l-.74-.88A4.44,4.44,0,0,1,9.07,8.71c1.79,0,3.1.86,3.1,2.35,0,1-.77,1.73-1.89,2.12v.06a2.48,2.48,0,0,1,2.2,2.27c0,1.64-1.53,2.6-3.37,2.6A4.41,4.41,0,0,1,5.81,16.83Z"/><path d="M14.34,16.83l.7-.91a3.6,3.6,0,0,0,2.5,1c1.17,0,2.05-.58,2.05-1.52s-.84-1.66-3.16-1.66V12.72c2.07,0,2.85-.66,2.85-1.56s-.7-1.32-1.74-1.32a3.27,3.27,0,0,0-2.13.89l-.74-.88A4.44,4.44,0,0,1,17.6,8.71c1.79,0,3.1.86,3.1,2.35,0,1-.77,1.73-1.89,2.12v.06A2.48,2.48,0,0,1,21,15.51c0,1.64-1.53,2.6-3.37,2.6A4.41,4.41,0,0,1,14.34,16.83Z"/></g></g></g></svg>