<svg xmlns="http://www.w3.org/2000/svg" viewBox="0 0 25.83 25.83"><defs><style>.cls-1{opacity:0.12;}</style></defs><g id="Layer_2" data-name="Layer 2"><g id="Layer_1-2" data-name="Layer 1"><g id="camp33_deselect"><circle class="cls-1" cx="12.91" cy="12.91" r="12.91"/><path d="M5.31,16.33l.7-.91a3.6,3.6,0,0,0,2.5,1c1.17,0,2.05-.58,2.05-1.52s-.84-1.66-3.16-1.66V12.22c2.07,0,2.85-.66,2.85-1.56s-.7-1.32-1.74-1.32a3.27,3.27,0,0,0-2.13.89l-.74-.88A4.44,4.44,0,0,1,8.57,8.21c1.79,0,3.1.86,3.1,2.35,0,1-.77,1.73-1.89,2.12v.06A2.48,2.48,0,0,1,12,15c0,1.64-1.53,2.6-3.37,2.6A4.41,4.41,0,0,1,5.31,16.33Z"/><path d="M13.84,16.33l.7-.91a3.6,3.6,0,0,0,2.5,1c1.17,0,2.05-.58,2.05-1.52s-.84-1.66-3.16-1.66V12.22c2.07,0,2.85-.66,2.85-1.56S18.08,9.34,17,9.34a3.27,3.27,0,0,0-2.13.89l-.74-.88A4.44,4.44,0,0,1,17.1,8.21c1.79,0,3.1.86,3.1,2.35,0,1-.77,1.73-1.89,2.12v.06A2.48,2.48,0,0,1,20.51,15c0,1.64-1.53,2.6-3.37,2.6A4.41,4.41,0,0,1,13.84,16.33Z"/></g></g></g></svg>